<svg fill="none" height="24" viewBox="0 0 24 24" width="24" xmlns="http://www.w3.org/2000/svg"><g stroke="#2a353d"><path d="m3 11 .15288 3.2269c.16426 3.4417.24639 5.1625 1.40597 6.2178s2.96831 1.0553 6.58575 1.0553h1.7108c3.6174 0 5.4262 0 6.5858-1.0553 1.1595-1.0553 1.2417-2.7761 1.4059-6.2178l.1529-3.2269" stroke-linecap="round" stroke-linejoin="round" stroke-width="1.5"/><path d="m2.84718 10.4431c1.6993 3.2313 5.53202 4.5569 9.15282 4.5569s7.4535-1.3256 9.1528-4.5569c.8112-1.54254.197-4.4431-1.8008-4.4431h-14.704c-1.99777 0-2.61197 2.90056-1.80082 4.4431z" stroke-width="1.5"/><path d="m12 11h.009" stroke-linecap="round" stroke-linejoin="round" stroke-width="2"/><path d="m16 6-.0883-.30906c-.44-1.54005-.66-2.31007-1.1838-2.75051-.5238-.44043-1.2195-.44043-2.6109-.44043h-.234c-1.3914 0-2.08713 0-2.6109.44043-.52378.44044-.74378 1.21046-1.1838 2.75051l-.0883.30906" stroke-width="1.5"/></g></svg>