<svg width="256" height="256" viewBox="0 0 256 256" fill="none" xmlns="http://www.w3.org/2000/svg">
<rect width="256" height="256" rx="56" fill="url(#paint0_linear_7_276)"/>
<g filter="url(#filter0_dd_7_276)">
<path d="M41.2628 143V97.688H51.6308V143H41.2628ZM75.2283 143C72.3269 143 69.8736 142.68 67.8683 142.04C65.8629 141.357 64.3269 140.205 63.2603 138.584C62.2363 136.92 61.7243 134.595 61.7243 131.608V118.296H56.8603V109.272H61.7243V100.568H71.9003V109.272H78.6203V118.296H71.9003V130.136C71.9003 131.245 72.0923 132.163 72.4763 132.888C72.8603 133.571 73.8416 133.912 75.4203 133.912H78.3003V143H75.2283ZM82.7953 143V97.688H92.9713V112.792C93.9526 111.64 95.0619 110.765 96.2993 110.168C97.5366 109.571 98.7526 109.165 99.9473 108.952C101.185 108.739 102.251 108.632 103.147 108.632C106.262 108.632 108.715 109.357 110.507 110.808C112.299 112.216 113.558 114.115 114.283 116.504C115.051 118.893 115.435 121.517 115.435 124.376V143H105.323V125.464C105.323 124.653 105.238 123.8 105.067 122.904C104.897 122.008 104.577 121.197 104.107 120.472C103.681 119.704 103.083 119.085 102.315 118.616C101.547 118.147 100.545 117.912 99.3073 117.912C98.1553 117.912 97.1526 118.147 96.2993 118.616C95.4886 119.043 94.8273 119.64 94.3153 120.408C93.8459 121.176 93.5046 122.051 93.2913 123.032C93.0779 123.971 92.9713 124.931 92.9713 125.912V143H82.7953ZM137.539 143.512C132.462 143.512 128.537 142.232 125.763 139.672C123.033 137.112 121.667 133.251 121.667 128.088V109.272H131.843V127.32C131.843 128.643 132.014 129.837 132.355 130.904C132.739 131.928 133.358 132.76 134.211 133.4C135.065 133.997 136.174 134.296 137.539 134.296C139.075 134.296 140.227 133.955 140.995 133.272C141.763 132.589 142.254 131.715 142.467 130.648C142.723 129.539 142.851 128.429 142.851 127.32V109.272H152.963V128.088C152.963 133.507 151.577 137.432 148.803 139.864C146.073 142.296 142.318 143.512 137.539 143.512ZM173.564 143.448C169.682 143.448 166.759 142.36 164.796 140.184C162.834 137.965 161.852 134.979 161.852 131.224V118.296H156.988V109.272H161.852V100.504H172.028V109.272H182.204V118.296H172.028V128.984C172.028 130.008 172.178 130.883 172.476 131.608C172.775 132.333 173.244 132.909 173.884 133.336C174.567 133.72 175.442 133.912 176.508 133.912C177.575 133.912 178.45 133.763 179.132 133.464C179.815 133.123 180.391 132.76 180.86 132.376L183.74 140.312C182.844 141.08 181.778 141.699 180.54 142.168C179.346 142.637 178.151 142.957 176.956 143.128C175.762 143.341 174.631 143.448 173.564 143.448ZM197.608 143.512C196.03 143.512 194.536 143.299 193.128 142.872C191.72 142.445 190.462 141.805 189.352 140.952C188.243 140.099 187.368 139.032 186.728 137.752C186.088 136.472 185.768 134.979 185.768 133.272C185.768 130.84 186.259 128.92 187.24 127.512C188.264 126.061 189.63 124.995 191.336 124.312C193.086 123.587 195.07 123.117 197.288 122.904C199.507 122.691 201.811 122.584 204.2 122.584H207.4C207.4 121.517 207.187 120.6 206.76 119.832C206.376 119.021 205.779 118.381 204.968 117.912C204.158 117.443 203.155 117.208 201.96 117.208C201.107 117.208 200.296 117.336 199.528 117.592C198.803 117.805 198.184 118.125 197.672 118.552C197.203 118.936 196.883 119.427 196.712 120.024H186.536C186.835 118.019 187.454 116.312 188.392 114.904C189.374 113.453 190.568 112.28 191.976 111.384C193.427 110.488 195.048 109.827 196.84 109.4C198.632 108.931 200.467 108.696 202.344 108.696C207.294 108.696 210.984 110.083 213.416 112.856C215.848 115.629 217.064 119.64 217.064 124.888V143H207.784L207.72 138.584C206.654 140.205 205.438 141.357 204.072 142.04C202.707 142.723 201.427 143.128 200.232 143.256C199.038 143.427 198.163 143.512 197.608 143.512ZM200.168 135.64C201.448 135.64 202.643 135.363 203.752 134.808C204.862 134.211 205.758 133.464 206.44 132.568C207.166 131.629 207.528 130.627 207.528 129.56V129.048H201.256C200.574 129.048 199.891 129.091 199.208 129.176C198.568 129.261 197.992 129.432 197.48 129.688C196.968 129.901 196.563 130.221 196.264 130.648C195.966 131.075 195.816 131.629 195.816 132.312C195.816 133.037 196.008 133.656 196.392 134.168C196.776 134.637 197.288 135 197.928 135.256C198.611 135.512 199.358 135.64 200.168 135.64Z" fill="white"/>
</g>
<defs>
<filter id="filter0_dd_7_276" x="37.2627" y="97.688" width="183.801" height="53.824" filterUnits="userSpaceOnUse" color-interpolation-filters="sRGB">
<feFlood flood-opacity="0" result="BackgroundImageFix"/>
<feColorMatrix in="SourceAlpha" type="matrix" values="0 0 0 0 0 0 0 0 0 0 0 0 0 0 0 0 0 0 127 0" result="hardAlpha"/>
<feOffset dy="4"/>
<feGaussianBlur stdDeviation="2"/>
<feComposite in2="hardAlpha" operator="out"/>
<feColorMatrix type="matrix" values="0 0 0 0 0 0 0 0 0 0 0 0 0 0 0 0 0 0 0.25 0"/>
<feBlend mode="normal" in2="BackgroundImageFix" result="effect1_dropShadow_7_276"/>
<feColorMatrix in="SourceAlpha" type="matrix" values="0 0 0 0 0 0 0 0 0 0 0 0 0 0 0 0 0 0 127 0" result="hardAlpha"/>
<feOffset dy="4"/>
<feGaussianBlur stdDeviation="2"/>
<feComposite in2="hardAlpha" operator="out"/>
<feColorMatrix type="matrix" values="0 0 0 0 0 0 0 0 0 0 0 0 0 0 0 0 0 0 0.25 0"/>
<feBlend mode="normal" in2="effect1_dropShadow_7_276" result="effect2_dropShadow_7_276"/>
<feBlend mode="normal" in="SourceGraphic" in2="effect2_dropShadow_7_276" result="shape"/>
</filter>
<linearGradient id="paint0_linear_7_276" x1="128" y1="0" x2="128" y2="256" gradientUnits="userSpaceOnUse">
<stop stop-color="#18BFFB"/>
<stop offset="1" stop-color="#2072F3"/>
</linearGradient>
</defs>
</svg>
