<svg xmlns="http://www.w3.org/2000/svg" version="1.1" xmlns:xlink="http://www.w3.org/1999/xlink" xmlns:svgjs="http://svgjs.dev/svgjs" width="2000" height="1500"><svg xmlns="http://www.w3.org/2000/svg" version="1.1" xmlns:xlink="http://www.w3.org/1999/xlink" width="2000" height="1500" viewBox="0 0 2000 1500"><rect width="2000" height="1500" x="0" y="0" id="SvgjsRect1107" stroke="transparent" fill="#0051d9"></rect><svg xml:space="preserve" width="1500" height="1125" data-version="2" data-id="lg_ZhOQsDjaTRmzNrZz13" viewBox="0 0 547 148" x="250" y="187.5"><rect width="100%" height="100%" fill="transparent"></rect><path fill="#fff" d="M32.635 143.46H5.445V7.62h27.19Z"></path><rect width="27.19" height="135.84" x="-13.6" y="-67.92" fill="none" rx="0" ry="0" transform="translate(19.54 76.04)"></rect><path fill="#fff" d="M105.955 143.46q-9.38 0-17.62-3.55t-14.45-9.76q-6.2-6.2-9.76-14.44-3.55-8.25-3.55-17.62V67.96h-12.6V42.2h12.6V1.65h25.77V42.2h39.21v25.76h-39.21v30.13q0 4.07 1.51 7.62 1.52 3.55 4.17 6.21 2.65 2.65 6.25 4.21t7.68 1.56h19.6v25.77Z"></path><rect width="77.58" height="141.81" x="-38.79" y="-70.91" fill="none" rx="0" ry="0" transform="translate(87.27 73.06)"></rect><path fill="#fff" d="M165.915 143.46h-25.86V1.65h25.86v44.81q4.64-3.5 9.57-4.97 4.92-1.47 10.04-1.47 9.37 0 17.62 3.55 8.24 3.55 14.35 9.76 6.11 6.2 9.66 14.49t3.55 17.67v57.97h-26.05V85.49h.19q0-3.98-1.52-7.53-1.51-3.56-4.16-6.21-2.66-2.65-6.16-4.17-3.51-1.51-7.48-1.51-4.08 0-7.68 1.51-3.6 1.52-6.25 4.17t-4.17 6.21q-1.51 3.55-1.51 7.53Z"></path><rect width="90.65" height="141.81" x="-45.33" y="-70.91" fill="none" rx="0" ry="0" transform="translate(185.88 73.06)"></rect><path fill="#fff" d="M322.875 131.62q-3.13 2.84-6.68 5.35t-7.43 4.36q-3.89 1.85-8.01 2.94-4.12 1.08-8.38 1.08-9.38 0-17.62-3.31-8.24-3.32-14.45-9.43-6.2-6.11-9.75-14.87-3.56-8.76-3.56-19.65V42.01h25.77v56.08q0 5.11 1.56 9.14 1.57 4.02 4.22 6.77 2.65 2.75 6.2 4.17 3.55 1.42 7.63 1.42 3.98 0 7.53-1.85 3.55-1.85 6.2-4.88 2.66-3.03 4.17-6.86 1.52-3.84 1.52-7.91V42.01h25.86v101.45h-6.25Z"></path><rect width="90.66" height="103.34" x="-45.33" y="-51.67" fill="none" rx="0" ry="0" transform="translate(292.82 94.18)"></rect><path fill="#fff" d="M408.225 143.46q-9.38 0-17.62-3.55t-14.45-9.76q-6.2-6.2-9.75-14.44-3.56-8.25-3.56-17.62V67.96h-12.59V42.2h12.59V1.65h25.77V42.2h39.22v25.76h-39.22v30.13q0 4.07 1.52 7.62 1.51 3.55 4.16 6.21 2.66 2.65 6.26 4.21 3.6 1.56 7.67 1.56h19.61v25.77Z"></path><rect width="77.58" height="141.81" x="-38.79" y="-70.91" fill="none" rx="0" ry="0" transform="translate(389.55 73.06)"></rect><path fill="#fff" d="M540.555 143.46h-6.25l-10.04-13.92q-3.7 3.31-7.82 6.2t-8.66 5.02q-4.55 2.13-9.33 3.36-4.79 1.23-9.71 1.23-10.71 0-20.13-3.6-9.43-3.59-16.49-10.46-7.05-6.87-11.13-16.82-4.07-9.94-4.07-22.64 0-11.84 4.07-21.74 4.08-9.89 11.13-17 7.06-7.1 16.49-11.03 9.42-3.94 20.13-3.94 4.92 0 9.75 1.24 4.83 1.23 9.38 3.41 4.55 2.17 8.67 5.11 4.12 2.94 7.72 6.35l10.04-12.03h6.25Zm-26.05-51.63q0-5.3-2.03-10.27-2.04-4.98-5.55-8.81-3.5-3.84-8.19-6.16-4.69-2.32-9.99-2.32-5.31 0-10 1.8t-8.14 5.3q-3.46 3.51-5.45 8.67-1.99 5.16-1.99 11.79 0 6.63 1.99 11.8 1.99 5.16 5.45 8.66 3.45 3.51 8.14 5.31 4.69 1.8 10 1.8 5.3 0 9.99-2.32t8.19-6.16q3.51-3.83 5.55-8.81 2.03-4.97 2.03-10.28"></path><rect width="103.63" height="107.23" x="-51.81" y="-53.62" fill="none" rx="0" ry="0" transform="translate(489.24 92.23)"></rect></svg></svg><style>@media (prefers-color-scheme: light) { :root { filter: none; } }
@media (prefers-color-scheme: dark) { :root { filter: none; } }
</style></svg>