<svg width="256" height="256" viewBox="0 0 256 256" fill="none" xmlns="http://www.w3.org/2000/svg">
<rect width="256" height="256" fill="url(#paint0_linear_7_268)"/>
<g filter="url(#filter0_dd_7_268)">
<path d="M27.6319 153V100.608H39.6199V153H27.6319ZM66.9045 153C63.5499 153 60.7132 152.63 58.3945 151.89C56.0759 151.101 54.2999 149.769 53.0665 147.894C51.8825 145.97 51.2905 143.281 51.2905 139.828V124.436H45.6665V114.002H51.2905V103.938H63.0565V114.002H70.8265V124.436H63.0565V138.126C63.0565 139.409 63.2785 140.469 63.7225 141.308C64.1665 142.097 65.3012 142.492 67.1265 142.492H70.4565V153H66.9045ZM75.6539 153V100.608H87.4199V118.072C88.5546 116.74 89.8372 115.729 91.2679 115.038C92.6986 114.347 94.1046 113.879 95.4859 113.632C96.9166 113.385 98.1499 113.262 99.1859 113.262C102.787 113.262 105.624 114.101 107.696 115.778C109.768 117.406 111.223 119.601 112.062 122.364C112.95 125.127 113.394 128.161 113.394 131.466V153H101.702V132.724C101.702 131.787 101.603 130.8 101.406 129.764C101.209 128.728 100.839 127.791 100.296 126.952C99.8026 126.064 99.1119 125.349 98.2239 124.806C97.3359 124.263 96.1766 123.992 94.7459 123.992C93.4139 123.992 92.2546 124.263 91.2679 124.806C90.3306 125.299 89.5659 125.99 88.9739 126.878C88.4312 127.766 88.0366 128.777 87.7899 129.912C87.5432 130.997 87.4199 132.107 87.4199 133.242V153H75.6539ZM138.952 153.592C133.081 153.592 128.542 152.112 125.336 149.152C122.178 146.192 120.6 141.727 120.6 135.758V114.002H132.366V134.87C132.366 136.399 132.563 137.781 132.958 139.014C133.402 140.198 134.117 141.16 135.104 141.9C136.09 142.591 137.373 142.936 138.952 142.936C140.728 142.936 142.06 142.541 142.948 141.752C143.836 140.963 144.403 139.951 144.65 138.718C144.946 137.435 145.094 136.153 145.094 134.87V114.002H156.786V135.758C156.786 142.023 155.182 146.562 151.976 149.374C148.818 152.186 144.477 153.592 138.952 153.592ZM180.606 153.518C176.116 153.518 172.737 152.26 170.468 149.744C168.198 147.179 167.064 143.725 167.064 139.384V124.436H161.44V114.002H167.064V103.864H178.83V114.002H190.596V124.436H178.83V136.794C178.83 137.978 179.002 138.989 179.348 139.828C179.693 140.667 180.236 141.333 180.976 141.826C181.765 142.27 182.776 142.492 184.01 142.492C185.243 142.492 186.254 142.319 187.044 141.974C187.833 141.579 188.499 141.16 189.042 140.716L192.372 149.892C191.336 150.78 190.102 151.495 188.672 152.038C187.29 152.581 185.909 152.951 184.528 153.148C183.146 153.395 181.839 153.518 180.606 153.518ZM208.406 153.592C206.581 153.592 204.854 153.345 203.226 152.852C201.598 152.359 200.143 151.619 198.86 150.632C197.578 149.645 196.566 148.412 195.826 146.932C195.086 145.452 194.716 143.725 194.716 141.752C194.716 138.94 195.284 136.72 196.418 135.092C197.602 133.415 199.181 132.181 201.154 131.392C203.177 130.553 205.471 130.011 208.036 129.764C210.602 129.517 213.266 129.394 216.028 129.394H219.728C219.728 128.161 219.482 127.1 218.988 126.212C218.544 125.275 217.854 124.535 216.916 123.992C215.979 123.449 214.82 123.178 213.438 123.178C212.452 123.178 211.514 123.326 210.626 123.622C209.788 123.869 209.072 124.239 208.48 124.732C207.938 125.176 207.568 125.743 207.37 126.434H195.604C195.95 124.115 196.665 122.142 197.75 120.514C198.885 118.837 200.266 117.48 201.894 116.444C203.572 115.408 205.446 114.643 207.518 114.15C209.59 113.607 211.712 113.336 213.882 113.336C219.605 113.336 223.872 114.939 226.684 118.146C229.496 121.353 230.902 125.99 230.902 132.058V153H220.172L220.098 147.894C218.865 149.769 217.459 151.101 215.88 151.89C214.302 152.679 212.822 153.148 211.44 153.296C210.059 153.493 209.048 153.592 208.406 153.592ZM211.366 144.49C212.846 144.49 214.228 144.169 215.51 143.528C216.793 142.837 217.829 141.974 218.618 140.938C219.457 139.853 219.876 138.693 219.876 137.46V136.868H212.624C211.835 136.868 211.046 136.917 210.256 137.016C209.516 137.115 208.85 137.312 208.258 137.608C207.666 137.855 207.198 138.225 206.852 138.718C206.507 139.211 206.334 139.853 206.334 140.642C206.334 141.481 206.556 142.196 207 142.788C207.444 143.331 208.036 143.75 208.776 144.046C209.566 144.342 210.429 144.49 211.366 144.49Z" fill="white"/>
</g>
<defs>
<filter id="filter0_dd_7_268" x="23.632" y="100.608" width="211.27" height="60.984" filterUnits="userSpaceOnUse" color-interpolation-filters="sRGB">
<feFlood flood-opacity="0" result="BackgroundImageFix"/>
<feColorMatrix in="SourceAlpha" type="matrix" values="0 0 0 0 0 0 0 0 0 0 0 0 0 0 0 0 0 0 127 0" result="hardAlpha"/>
<feOffset dy="4"/>
<feGaussianBlur stdDeviation="2"/>
<feComposite in2="hardAlpha" operator="out"/>
<feColorMatrix type="matrix" values="0 0 0 0 0 0 0 0 0 0 0 0 0 0 0 0 0 0 0.25 0"/>
<feBlend mode="normal" in2="BackgroundImageFix" result="effect1_dropShadow_7_268"/>
<feColorMatrix in="SourceAlpha" type="matrix" values="0 0 0 0 0 0 0 0 0 0 0 0 0 0 0 0 0 0 127 0" result="hardAlpha"/>
<feOffset dy="4"/>
<feGaussianBlur stdDeviation="2"/>
<feComposite in2="hardAlpha" operator="out"/>
<feColorMatrix type="matrix" values="0 0 0 0 0 0 0 0 0 0 0 0 0 0 0 0 0 0 0.25 0"/>
<feBlend mode="normal" in2="effect1_dropShadow_7_268" result="effect2_dropShadow_7_268"/>
<feBlend mode="normal" in="SourceGraphic" in2="effect2_dropShadow_7_268" result="shape"/>
</filter>
<linearGradient id="paint0_linear_7_268" x1="128" y1="0" x2="128" y2="256" gradientUnits="userSpaceOnUse">
<stop stop-color="#18BFFB"/>
<stop offset="1" stop-color="#2072F3"/>
</linearGradient>
</defs>
</svg>
